<?xml version="1.0" standalone="no"?><!DOCTYPE svg PUBLIC "-//W3C//DTD SVG 1.1//EN" "http://www.w3.org/Graphics/SVG/1.1/DTD/svg11.dtd"><svg t="1760172715578" class="icon" viewBox="0 0 1024 1024" version="1.1" xmlns="http://www.w3.org/2000/svg" p-id="18329" width="22" height="22" xmlns:xlink="http://www.w3.org/1999/xlink"><path d="M512 675.2768l-181.4016-136.0384h-36.3008c-105.216 0.1536-190.6176-84.992-190.7712-190.208-0.1536-101.376 79.104-185.088 180.3264-190.5152l10.4448-0.256h3.4304a108.74368 108.74368 0 0 1 105.4208-81.6128h326.5536c60.1088 0 108.8512 48.7424 108.8512 108.8512s-48.7424 108.8512-108.8512 108.8512H403.1488c-49.6128 0-92.9792-33.536-105.4208-81.5616h-3.4304c-75.1616-0.256-136.192 60.5184-136.3968 135.68-0.1536 71.936 55.6544 131.584 127.488 136.1408l8.9088 0.256h36.3008L512 348.8256l181.4016 136.0384h36.3008c105.216-0.1536 190.6176 84.992 190.7712 190.208 0.1536 101.376-79.104 185.088-180.3264 190.5152l-10.4448 0.256h-3.4304c-12.4416 48.0768-55.808 81.664-105.4208 81.6128H294.2976c-60.1088 0-108.8512-48.7424-108.8512-108.8512s48.7424-108.8512 108.8512-108.8512h326.5536c49.664 0 93.0304 33.5872 105.4208 81.6128h3.4304c75.1616 0.2048 136.192-60.5696 136.3968-135.7312 0.1536-71.936-55.6544-131.584-127.488-136.1408l-8.9088-0.256h-36.3008L512 675.2768z" p-id="18330" fill="#515151"></path></svg>