<?xml version="1.0" standalone="no"?><!DOCTYPE svg PUBLIC "-//W3C//DTD SVG 1.1//EN" "http://www.w3.org/Graphics/SVG/1.1/DTD/svg11.dtd"><svg t="1760171810822" class="icon" viewBox="0 0 1024 1024" version="1.1" xmlns="http://www.w3.org/2000/svg" p-id="9185" width="22" height="22" xmlns:xlink="http://www.w3.org/1999/xlink"><path d="M736 480m-70.4 0a70.4 70.4 0 1 0 140.8 0 70.4 70.4 0 1 0-140.8 0Z" fill="#515151" p-id="9186"></path><path d="M454.4 288m-115.2 0a115.2 115.2 0 1 0 230.4 0 115.2 115.2 0 1 0-230.4 0Z" fill="#515151" p-id="9187"></path><path d="M844.8 147.2c-57.6-64-134.4-128-332.8-128C435.2 19.2 320 38.4 230.4 128c-57.6 57.6-96 128-83.2 249.6 0 25.6 38.4 57.6 12.8 102.4 0 0-57.6 96-51.2 115.2 0 0 0 32 44.8 32 0 0 12.8 0 6.4 25.6v38.4s0 12.8 19.2 19.2c0 0 6.4 6.4 0 12.8 0 0-12.8 12.8 6.4 38.4 6.4 6.4 19.2 19.2 12.8 44.8 0 0-6.4 44.8 12.8 57.6 0 0 19.2 25.6 102.4 12.8 32-6.4 83.2-19.2 115.2 19.2 0 0 57.6 89.6 64 121.6 0 0 160-121.6 320-160 0 0-51.2-140.8 25.6-256 0 0 102.4-128 102.4-204.8 6.4 12.8 32-108.8-96-249.6zM569.6 428.8c-6.4 0-6.4 6.4-12.8 6.4s-12.8 6.4-19.2 12.8v38.4h-12.8c-6.4 0-6.4 0-6.4 6.4-12.8-12.8-19.2-19.2-25.6-32-6.4 0-12.8 6.4-25.6 6.4-6.4 6.4-12.8 19.2-12.8 32h-25.6c-6.4-12.8-12.8-25.6-12.8-38.4h-6.4c-6.4 0-12.8-6.4-19.2-6.4-12.8 6.4-19.2 19.2-32 25.6-6.4-6.4-12.8-6.4-19.2-12.8 0-12.8 6.4-25.6 6.4-38.4l-19.2-19.2-6.4-6.4c-12.8 0-25.6 0-38.4 6.4-6.4-6.4-6.4-12.8-12.8-25.6l25.6-32c-6.4 0-6.4-12.8-12.8-19.2-6.4-6.4-25.6-6.4-32-6.4 0-6.4 0-19.2-6.4-25.6 12.8-6.4 25.6-12.8 32-19.2V256c-6.4-6.4-12.8-12.8-25.6-19.2 0 0-6.4 0 0-6.4 0-6.4 6.4-12.8 6.4-19.2v-6.4h44.8c0-6.4 0-12.8 6.4-19.2l6.4-6.4c-6.4-12.8-12.8-25.6-19.2-32 6.4-12.8 12.8-12.8 12.8-19.2l38.4 12.8c6.4-6.4 6.4-6.4 12.8-6.4 6.4-6.4 12.8-6.4 19.2-12.8V83.2l12.8-6.4c6.4 0 6.4 0 6.4-6.4 6.4 12.8 12.8 19.2 19.2 32h25.6c6.4-12.8 12.8-19.2 19.2-32h25.6c6.4 12.8 6.4 25.6 6.4 38.4 6.4 0 12.8 6.4 25.6 6.4h6.4c12.8-6.4 19.2-12.8 25.6-19.2 6.4 6.4 12.8 6.4 19.2 12.8 0 12.8-6.4 25.6-6.4 38.4l6.4 6.4c6.4 0 12.8 6.4 19.2 6.4l38.4-12.8c0 6.4 6.4 6.4 6.4 6.4 6.4 6.4 6.4 6.4 6.4 12.8v6.4c-12.8 12.8-19.2 25.6-25.6 32 0 6.4 6.4 12.8 6.4 12.8l6.4 12.8c12.8 6.4 25.6 6.4 38.4 6.4 0 6.4 0 19.2 6.4 25.6-12.8 6.4-19.2 12.8-32 19.2v25.6c0 12.8 12.8 19.2 19.2 25.6 0 6.4-6.4 12.8-6.4 19.2v6.4h-38.4c-6.4 12.8-6.4 19.2-12.8 19.2V384c6.4 12.8 12.8 19.2 19.2 32-6.4 12.8-19.2 19.2-19.2 25.6-12.8-6.4-19.2-12.8-32-12.8zM864 512c0 6.4-6.4 6.4-6.4 12.8H832c0 6.4-6.4 6.4-6.4 12.8v6.4l12.8 19.2-12.8 12.8-19.2-12.8c-6.4 0-6.4 6.4-6.4 6.4-6.4 0-6.4 6.4-12.8 6.4v25.6c-6.4 0-6.4 0-12.8 6.4H768c-6.4-6.4-6.4-12.8-12.8-19.2h-12.8c-6.4 6.4-6.4 12.8-6.4 19.2h-12.8c0-6.4-6.4-12.8-6.4-19.2-6.4 0-6.4-6.4-12.8-6.4-6.4 6.4-12.8 12.8-19.2 12.8-6.4-6.4-6.4-6.4-12.8-6.4 0-6.4 6.4-12.8 6.4-25.6l-12.8-12.8h-6.4c-6.4 0-12.8 6.4-19.2 6.4-12.8-6.4-19.2-12.8-19.2-12.8 6.4-6.4 12.8-12.8 12.8-19.2 0-6.4-6.4-6.4-6.4-12.8-6.4 0-12.8-6.4-19.2-6.4v-12.8l19.2-12.8v-19.2c-6.4-6.4-12.8-6.4-12.8-12.8s0-6.4 6.4-12.8h19.2c0-6.4 6.4-6.4 6.4-12.8v-6.4l-12.8-19.2c6.4 0 6.4-6.4 12.8-12.8l19.2 12.8c6.4 0 6.4-6.4 6.4-6.4 6.4 0 6.4-6.4 12.8-6.4v-25.6c6.4 0 6.4 0 12.8-6.4h6.4c6.4 6.4 6.4 12.8 12.8 19.2h12.8c6.4-6.4 6.4-12.8 6.4-19.2h12.8c0 6.4 6.4 12.8 6.4 19.2 6.4 0 12.8 0 12.8 6.4h6.4c6.4-6.4 12.8-12.8 19.2-12.8 6.4 6.4 6.4 6.4 12.8 6.4 0 6.4-6.4 12.8-6.4 19.2l6.4 6.4 6.4 6.4c6.4 0 12.8-6.4 19.2-6.4 0 0 0 6.4 6.4 6.4l6.4 6.4c-6.4 6.4-6.4 12.8-12.8 19.2V448c0 6.4 0 6.4 6.4 12.8 6.4 0 12.8 6.4 19.2 6.4v12.8l-19.2 12.8V512c12.8-12.8 19.2-6.4 25.6 0z" fill="#515151" p-id="9188"></path></svg>