<?xml version="1.0" standalone="no"?><!DOCTYPE svg PUBLIC "-//W3C//DTD SVG 1.1//EN" "http://www.w3.org/Graphics/SVG/1.1/DTD/svg11.dtd"><svg t="1760172009650" class="icon" viewBox="0 0 1024 1024" version="1.1" xmlns="http://www.w3.org/2000/svg" p-id="10335" width="22" height="22" xmlns:xlink="http://www.w3.org/1999/xlink"><path d="M216 128h760a48 48 0 0 1 48 48v544a48 48 0 0 1-48 48H416a48 48 0 0 1-48-48V392a48 48 0 0 0-48-48H184a16 16 0 0 1-16-16V176a48 48 0 0 1 48-48z m40 280H48a48 48 0 0 0-48 48v392a48 48 0 0 0 48 48h208a48 48 0 0 0 48-48V456a48 48 0 0 0-48-48z m236 240a20 20 0 0 0 0 40h312a20 20 0 1 0 0-40h-312zM176 832a24 24 0 1 1-48 0 24 24 0 0 1 48 0z m596-8h-344a36 36 0 1 0 0 72h344a36 36 0 1 0 0-72z" p-id="10336" fill="#515151"></path></svg>