<?xml version="1.0" standalone="no"?><!DOCTYPE svg PUBLIC "-//W3C//DTD SVG 1.1//EN" "http://www.w3.org/Graphics/SVG/1.1/DTD/svg11.dtd"><svg t="1760172434665" class="icon" viewBox="0 0 1024 1024" version="1.1" xmlns="http://www.w3.org/2000/svg" p-id="11492" width="22" height="22" xmlns:xlink="http://www.w3.org/1999/xlink"><path d="M492.15 64.86c25.42-2.36 51.87-0.04 75.33 10.59 100.31 43.51 200.63 87.04 300.94 130.56 5.29 2.39 10.82 4.32 15.73 7.49 10.31 6.26 20.08 14.66 24.74 26.08 4.89 11.75 3.19 25.87-4.19 36.22-7.76 11.01-19.43 18.72-31.68 23.91-47.81 21.56-95.61 43.13-143.42 64.69-19.7-29.15-45.33-54.29-74.98-73.25-29.61-19.02-63.18-31.82-97.94-37.33-37.64-5.99-76.62-3.62-113.2 7.1-60.27 17.4-113.34 57.93-146.36 111.22-53.52-23.8-106.98-47.72-160.51-71.49-11.01-3.51-22.2-8.6-29.42-18-8.4-10.48-9.52-25.76-3.76-37.74 6.06-12.58 17.78-21.39 30.01-27.51 104.67-47.21 209.35-94.42 314.02-141.64 14.02-6.55 29.42-9.36 44.69-10.9z" p-id="11493" fill="#515151"></path><path d="M410.37 364.84c40.74-32.27 91.52-49.06 142.26-57.38 3.22-1.24 5.47 3.73 2.42 5.27-25.41 15.24-49.24 33.89-67.27 57.61a171.483 171.483 0 0 0-27.92 54.79c-8.59 27.98-9.87 57.45-11.11 86.5 11.23-0.08 22.46 0.18 33.68-0.16 6.5 0.33 11.55 7.02 10.55 13.36-0.29 3.65-2.84 6.47-4.98 9.24-25.15 32.61-50.28 65.22-75.41 97.85-2.71 3.81-6.1 7.29-10.5 9.1-8.7 3.86-19.73 1.07-25.49-6.52-26.99-34.4-53.92-68.84-80.89-103.24-2.96-3.42-4.08-8.43-2.33-12.67 1.66-4.41 6.13-7.55 10.84-7.58 10.74-0.1 21.49 0 32.25-0.04 0.62-30.67 9.18-61.05 24.03-87.86 12.47-22.52 29.7-42.31 49.87-58.27z" p-id="11494" fill="#515151"></path><path d="M80.9 363.61c9.86-12.02 26.06-17.32 41.24-16.6 14.11 1.12 27.02 7.37 39.65 13.26 38.24 17.54 76.49 35.06 114.73 52.6-22.79 57.02-24.17 122.23-3.81 180.17 19.79 57.07 60.49 106.48 112.58 137.03 31.8 18.81 67.72 30.51 104.48 34.23 0.01 46.73-0.02 93.46 0.01 140.17 0.25 10.63-3.11 21.39-9.89 29.64-9.27 11.55-24.04 17.97-38.73 18.1h-1.02c-10.99-0.38-21.44-4.18-31.72-7.7-92.92-43.12-185.81-86.3-278.71-129.47-15.49-7.5-29.35-18.34-40.46-31.48-9.07-10.83-16.42-23.75-17.74-38.06V389.68c0.52-9.36 3.29-18.8 9.39-26.07z m784.76-1.1c13.89-6.54 27.83-14.07 43.42-15.41 13.9-0.79 28.55 3.43 38.7 13.25 8.02 7.69 12.36 18.83 12.21 29.89 0.02 116.54 0 233.06 0 349.59 0.21 13.44-4.92 26.49-12.77 37.24-11.81 16.25-29.04 27.9-47.5 35.41-95.12 44.73-190.2 89.54-285.29 134.32-7.65 3.45-16.02 5.05-24.38 5.41h-2.61c-11.87-0.67-23.98-4.53-32.7-12.88-8.27-7.58-12.85-18.77-12.77-29.94-0.02-48.36-0.01-96.72-0.01-145.08 50.15-4.99 98.59-25.2 137.43-57.3 48.32-39.51 81.46-97.12 90.88-158.85 7.03-44.87 2.07-91.58-14.5-133.88 36.62-17.27 73.26-34.51 109.89-51.77z" p-id="11495" fill="#515151"></path><path d="M628.74 375.79c8.87-4.77 20.81-2.14 26.89 5.87 26.74 33.99 53.47 68 80.2 101.99 2.35 3.73 4.29 8.31 2.92 12.75-1.31 5.21-6.37 9.2-11.77 9.06-10.53 0.04-21.06-0.02-31.58 0.02-1.01 39.92-14.98 79.4-39.28 111.1-18.45 24.18-42.71 43.57-69.44 57.89-33.58 18.02-70.7 28.55-108.16 34.68-2.66 1.02-4.99-2.52-3.16-4.58 3.43-2.51 7.26-4.39 10.82-6.7 26-16.31 50.03-36.76 66.89-62.67 11.96-18.14 20.04-38.72 24.2-60.02 4.66-23.03 4.95-46.63 4.91-70.03-11.33-0.13-22.65 0.2-33.96-0.16-8.48-1.01-12.99-12.09-7.77-18.8 25.31-32.77 50.8-65.42 76.18-98.14 3.59-4.48 6.71-9.73 12.11-12.26z" p-id="11496" fill="#515151"></path></svg>